Coordinates
version=1
nRows=17
nColumns=40
inDegrees=yes

Units are S.I. units (second, meters, Newtons, ...)
Angles are in degrees.

endheader
time	pelvis_tilt	pelvis_list	pelvis_rotation	pelvis_tx	pelvis_ty	pelvis_tz	hip_flexion_r	hip_adduction_r	hip_rotation_r	knee_angle_r	knee_angle_r_beta	ankle_angle_r	subtalar_angle_r	mtp_angle_r	hip_flexion_l	hip_adduction_l	hip_rotation_l	knee_angle_l	knee_angle_l_beta	ankle_angle_l	subtalar_angle_l	mtp_angle_l	lumbar_extension	lumbar_bending	lumbar_rotation	arm_flex_r	arm_add_r	arm_rot_r	elbow_flex_r	pro_sup_r	wrist_flex_r	wrist_dev_r	arm_flex_l	arm_add_l	arm_rot_l	elbow_flex_l	pro_sup_l	wrist_flex_l	wrist_dev_l
     54.65500000	     -5.18418777	     -4.65332612	      9.92543393	      1.23271518	      0.91739711	      0.46627763	      2.51656005	      1.62812072	    -13.78952250	     19.09810198	     19.09810198	     19.06772278	     -5.61778446	     -1.96948724	     29.02829683	     -5.21364606	      5.06017169	     26.51209077	     26.51209077	      6.57334715	    -11.07826523	      1.57813622	     -8.93576771	      3.39135297	      6.19946669	     64.88599017	    -15.52067043	     15.66048538	     95.91031203	     43.16364055	      0.00000000	      0.00000000	     -7.71393490	    -15.05066953	     18.84892706	     35.30298378	     43.44548891	      0.00000000	      0.00000000
     54.67714286	     -5.39075924	     -4.70264650	      9.37878747	      1.23405724	      0.91836818	      0.46170823	      2.35778488	      1.29438182	    -13.60701889	     19.09699383	     19.09699383	     18.56619320	     -5.19523631	     -1.97690724	     28.70104079	     -5.15159695	      4.70838015	     26.55412139	     26.55412139	      7.01221613	    -11.32775311	      1.71185375	     -8.81518117	      3.38919151	      6.19039083	     64.67996600	    -15.51159345	     15.67508706	     95.26580829	     43.21866128	      0.00000000	      0.00000000	     -6.91002065	    -15.46371148	     18.65763841	     35.94664118	     43.51883497	      0.00000000	      0.00000000
     54.69928571	     -5.61796712	     -4.81017531	      8.80033871	      1.23530746	      0.91931317	      0.45717428	      2.28245675	      1.02512232	    -13.32555007	     19.15151824	     19.15151824	     18.10679087	     -4.88598642	     -1.90821808	     28.39658972	     -5.15523166	      4.29517789	     26.56129146	     26.56129146	      7.36099032	    -11.63099089	      1.67984725	     -8.72952932	      3.52669819	      6.01107717	     64.24587336	    -15.37228158	     15.77369010	     94.95478725	     43.23069895	      0.00000000	      0.00000000	     -6.00255209	    -15.74998928	     18.54096021	     36.28052340	     43.55189330	      0.00000000	      0.00000000
     54.72142857	     -5.79051844	     -4.81862779	      8.17046394	      1.23657136	      0.92050714	      0.45256296	      2.15024707	      0.59451456	    -13.20691224	     19.22939162	     19.22939162	     17.57223223	     -4.21422296	     -2.13586121	     27.85684961	     -5.07072127	      3.85232309	     26.31020781	     26.31020781	      7.72785308	    -11.87915380	      1.89042524	     -8.60543603	      3.55129099	      6.12549390	     63.60180858	    -15.50668750	     15.29086493	     93.27592351	     43.33037175	      0.00000000	      0.00000000	     -5.01681286	    -15.98678933	     18.43995490	     36.92057528	     43.61426735	      0.00000000	      0.00000000
     54.74357143	     -5.97459955	     -4.94610025	      7.53319109	      1.23775892	      0.92165604	      0.44801394	      2.11947722	      0.31148665	    -12.92068982	     19.39424063	     19.39424063	     17.05678793	     -3.84007669	     -2.14882764	     27.39580475	     -5.10415268	      3.40961391	     26.11739829	     26.11739829	      8.04455112	    -12.13993465	      1.93515870	     -8.55540074	      3.77436356	      5.93637004	     62.61789903	    -15.39804832	     15.31174283	     92.53220292	     43.35837621	      0.00000000	      0.00000000	     -4.03956459	    -16.13829548	     18.35805831	     37.27157573	     43.64628776	      0.00000000	      0.00000000
     54.76571429	     -6.16555977	     -4.92734884	      6.85093392	      1.23888473	      0.92295947	      0.44332320	      2.16492486	     -0.19687730	    -12.67951731	     19.69520864	     19.69520864	     16.50770477	     -3.27161756	     -2.40442974	     26.77002814	     -4.98689191	      2.87246256	     25.65326876	     25.65326876	      8.28490604	    -12.36384381	      2.14822476	     -8.42681376	      3.85266597	      5.99365092	     61.29311932	    -15.61412106	     14.74562370	     90.55427857	     43.45154382	      0.00000000	      0.00000000	     -2.91135370	    -16.14960917	     18.31635244	     37.66540672	     43.68535609	      0.00000000	      0.00000000
     54.78785714	     -6.33061592	     -4.96724121	      6.15928718	      1.23978821	      0.92416520	      0.43862611	      2.33443659	     -0.72076563	    -12.63897394	     20.19951593	     20.19951593	     15.62883938	     -2.59086570	     -3.90079760	     26.21011907	     -4.87882281	      2.51012600	     25.31612035	     25.31612035	      8.61797810	    -12.81301539	      2.73407076	     -8.30872536	      4.04361895	      5.56600912	     60.09515650	    -14.23868020	     12.72055201	     86.58096075	     43.71601426	      0.00000000	      0.00000000	     -1.66807640	    -16.13261454	     18.77022947	     37.40193409	     43.74295054	      0.00000000	      0.00000000
     54.81000000	     -6.49452454	     -4.99145615	      5.41543605	      1.24058357	      0.92532388	      0.43392478	      2.75590039	     -1.26231902	    -12.22060651	     21.13310567	     21.13310567	     15.00396000	     -2.37599072	     -4.48045874	     25.62851242	     -4.79882306	      1.96062424	     24.91953278	     24.91953278	      8.84073664	    -13.06776214	      2.95489910	     -8.30755806	      4.24579227	      5.71466901	     58.24470992	    -14.54785711	     12.27209380	     84.38875130	     43.81498660	      0.00000000	      0.00000000	     -0.26200471	    -15.98224903	     18.74367195	     37.83356234	     43.79224309	      0.00000000	      0.00000000
     54.83214286	     -6.59457068	     -5.06186214	      4.69753377	      1.24118541	      0.92629919	      0.42913540	      3.28565653	     -1.80161295	    -11.86188904	     22.29743042	     22.29743042	     13.86771722	     -2.35739495	     -6.59089004	     25.12073585	     -4.70073092	      1.62858462	     24.73770479	     24.73770479	      9.16382246	    -13.61794828	      3.55715681	     -8.29859591	      4.59882651	      5.43580716	     56.48862687	    -13.44561512	     10.31236350	     80.08116855	     44.07073462	      0.00000000	      0.00000000	      1.32365862	    -15.68927634	     19.28515915	     37.42910952	     43.83103774	      0.00000000	      0.00000000
     54.85428571	     -6.68751478	     -5.02970401	      3.91688200	      1.24155874	      0.92701282	      0.42435086	      4.25619723	     -2.51272216	    -11.23674985	     24.29508504	     24.29508504	     13.20316716	     -2.60347216	     -7.50594911	     24.62639295	     -4.55967427	      1.01069604	     24.57649212	     24.57649212	      9.41150507	    -13.91389708	      3.72839333	     -8.46076088	      4.83380599	      5.57534307	     54.04202138	    -13.79417879	      9.97474792	     77.66230400	     44.16467884	      0.00000000	      0.00000000	      2.91019058	    -15.40188141	     19.26679697	     38.01769663	     43.87486890	      0.00000000	      0.00000000
     54.87642857	     -6.70833242	     -5.10752772	      3.18603973	      1.24168644	      0.92738434	      0.41957706	      5.33134635	     -3.06685403	    -10.47021948	     26.43263823	     26.43263823	     11.39361231	     -3.76620936	    -11.21947586	     24.28018686	     -4.44450238	      0.77243246	     24.77246860	     24.77246860	      9.95745610	    -14.54993061	      4.66731866	     -8.56845941	      5.29599566	      5.31050281	     52.23894186	    -12.28812669	      7.17805496	     71.56509623	     44.50675829	      0.00000000	      0.00000000	      4.79723634	    -15.07075525	     20.19768153	     37.65533922	     43.88291224	      0.00000000	      0.00000000
     54.89857143	     -6.74003300	     -5.05565538	      2.41924116	      1.24156784	      0.92710065	      0.41480482	      6.99516540	     -3.86645506	     -9.64530525	     29.70478648	     29.70478648	     10.50262220	     -4.55529624	    -12.45531702	     24.08053230	     -4.24841516	      0.28432821	     25.19279367	     25.19279367	     10.37172590	    -15.05988653	      4.72028356	     -8.86221792	      5.56619118	      5.49183454	     49.46967679	    -12.78572006	      6.83710709	     68.92580233	     44.60528239	      0.00000000	      0.00000000	      6.63324737	    -14.70427637	     20.16192782	     38.53782398	     43.93249193	      0.00000000	      0.00000000
     54.92071429	     -6.65911030	     -5.16392445	      1.71217292	      1.24124792	      0.92649623	      0.41021271	      8.64499045	     -4.27414851	     -8.41755825	     32.94978906	     32.94978906	      8.43354259	     -6.94859064	    -15.72570977	     23.99817449	     -4.16489662	      0.12442949	     25.99076023	     25.99076023	     11.17554661	    -15.80770004	      5.73585949	     -9.13429450	      6.09467586	      5.57558135	     47.35328916	    -11.95276552	      4.14841884	     62.40482447	     44.94550455	      0.00000000	      0.00000000	      8.74408353	    -14.35126944	     21.03062121	     38.98502485	     43.93737024	      0.00000000	      0.00000000
     54.94285714	     -6.54517594	     -5.00304910	      1.00073921	      1.24075655	      0.92503645	      0.40557735	     10.76835205	     -5.12735325	     -7.42668658	     37.22040967	     37.22040967	      7.28666219	     -8.15911613	    -16.71849255	     24.00680583	     -3.85019037	     -0.31063925	     27.01505031	     27.01505031	     11.80090591	    -16.42701354	      5.67833070	     -9.59010200	      6.31368688	      5.52126128	     44.28013549	    -12.26594482	      3.75680014	     59.71155299	     45.04471263	      0.00000000	      0.00000000	     10.72510351	    -14.08725954	     20.96659542	     39.97756764	     43.98944608	      0.00000000	      0.00000000
     54.96500000	     -6.38885667	     -5.02593199	      0.32458750	      1.24014401	      0.92325512	      0.40136904	     12.85966199	     -5.43144238	     -6.01318800	     41.29659031	     41.29659031	      5.22887715	    -11.00960065	    -18.48249066	     24.20362736	     -3.71257406	     -0.52318401	     28.45851336	     28.45851336	     13.29791219	    -16.85932553	      7.54602890	     -9.92094342	      6.75094731	      5.40424300	     42.35696117	    -11.09683573	      0.04135215	     51.94130629	     45.47727407	      0.00000000	      0.00000000	     12.83276054	    -14.05515167	     22.09085153	     40.96239214	     44.00077152	      0.00000000	      0.00000000
     54.98714286	     -6.18390035	     -4.95554482	     -0.31274769	      1.23945361	      0.92085880	      0.39730779	     15.10652753	     -5.86279239	     -4.86590632	     45.76810925	     45.76810925	      3.99112257	    -12.62757587	    -17.75401942	     24.47323093	     -3.47737309	     -0.73219981	     30.10692028	     30.10692028	     14.70510512	    -17.38579513	      8.91933868	    -10.36141685	      7.07778522	      5.46071795	     39.53565124	    -10.98973908	     -2.46878631	     47.03527692	     45.75319721	      0.00000000	      0.00000000	     14.89761476	    -14.03037790	     22.39405763	     42.63539839	     44.14213975	      0.00000000	      0.00000000
     55.00928571	     -5.92849806	     -4.80288263	     -0.93705555	      1.23880670	      0.91815484	      0.39356954	     17.28463872	     -6.26037863	     -3.73941512	     50.05936499	     50.05936499	      2.59888655	    -14.23276415	    -17.13368362	     24.62202323	     -3.20088466	     -1.06870543	     31.59298884	     31.59298884	     15.53431774	    -17.95126069	      8.71489599	    -10.85721308	      7.28627203	      5.56375130	     35.84294008	    -11.70587315	     -2.80558623	     44.46760749	     45.84300305	      0.00000000	      0.00000000	     17.11027440	    -13.85547287	     21.98535862	     43.92812563	     44.23424706	      0.00000000	      0.00000000
